<svg xmlns="http://www.w3.org/2000/svg"><symbol viewBox="0 0 512 512" id="adjust"><path d="M8 256c0 136.966 111.033 248 248 248s248-111.034 248-248S392.966 8 256 8 8 119.033 8 256zm248 184V72c101.705.0 184 82.311 184 184 0 101.705-82.311 184-184 184z"/></symbol><symbol viewBox="0 0 448 512" id="angle-double-right"><path d="M224.3 273l-136 136c-9.4 9.4-24.6 9.4-33.9.0l-22.6-22.6c-9.4-9.4-9.4-24.6.0-33.9l96.4-96.4-96.4-96.4c-9.4-9.4-9.4-24.6.0-33.9L54.3 103c9.4-9.4 24.6-9.4 33.9.0l136 136c9.5 9.4 9.5 24.6.1 34zm192-34-136-136c-9.4-9.4-24.6-9.4-33.9.0l-22.6 22.6c-9.4 9.4-9.4 24.6.0 33.9l96.4 96.4-96.4 96.4c-9.4 9.4-9.4 24.6.0 33.9l22.6 22.6c9.4 9.4 24.6 9.4 33.9.0l136-136c9.4-9.2 9.4-24.4.0-33.8z"/></symbol><symbol viewBox="0 0 256 512" id="angle-right"><path d="M224.3 273l-136 136c-9.4 9.4-24.6 9.4-33.9.0l-22.6-22.6c-9.4-9.4-9.4-24.6.0-33.9l96.4-96.4-96.4-96.4c-9.4-9.4-9.4-24.6.0-33.9L54.3 103c9.4-9.4 24.6-9.4 33.9.0l136 136c9.5 9.4 9.5 24.6.1 34z"/></symbol><symbol viewBox="0 0 320 512" id="caret-down"><path d="M31.3 192h257.3c17.8.0 26.7 21.5 14.1 34.1L174.1 354.8c-7.8 7.8-20.5 7.8-28.3.0L17.2 226.1C4.6 213.5 13.5 192 31.3 192z"/></symbol><symbol viewBox="0 0 448 512" id="hashtag"><path d="M440.667 182.109l7.143-40c1.313-7.355-4.342-14.109-11.813-14.109h-74.81l14.623-81.891C377.123 38.754 371.468 32 363.997 32h-40.632a12 12 0 00-11.813 9.891L296.175 128H197.54l14.623-81.891C213.477 38.754 207.822 32 200.35 32h-40.632a12 12 0 00-11.813 9.891L132.528 128H53.432a12 12 0 00-11.813 9.891l-7.143 40C33.163 185.246 38.818 192 46.289 192h74.81L98.242 320H19.146a12 12 0 00-11.813 9.891l-7.143 40C-1.123 377.246 4.532 384 12.003 384h74.81L72.19 465.891C70.877 473.246 76.532 480 84.003 480h40.632a12 12 0 0011.813-9.891L151.826 384h98.634l-14.623 81.891C234.523 473.246 240.178 480 247.65 480h40.632a12 12 0 0011.813-9.891L315.472 384h79.096a12 12 0 0011.813-9.891l7.143-40c1.313-7.355-4.342-14.109-11.813-14.109h-74.81l22.857-128h79.096a12 12 0 0011.813-9.891zM261.889 320h-98.634l22.857-128h98.634l-22.857 128z"/></symbol><symbol viewBox="0 0 512 512" id="search"><path d="M505 442.7 405.3 343c-4.5-4.5-10.6-7-17-7H372c27.6-35.3 44-79.7 44-128C416 93.1 322.9.0 208 0S0 93.1.0 208s93.1 208 208 208c48.3.0 92.7-16.4 128-44v16.3c0 6.4 2.5 12.5 7 17l99.7 99.7c9.4 9.4 24.6 9.4 33.9.0l28.3-28.3c9.4-9.4 9.4-24.6.1-34zM208 336c-70.7.0-128-57.2-128-128 0-70.7 57.2-128 128-128 70.7.0 128 57.2 128 128 0 70.7-57.2 128-128 128z"/></symbol><symbol viewBox="0 0 512 512" id="facebook"><path d="M504 256C504 119 393 8 256 8S8 119 8 256c0 123.78 90.69 226.38 209.25 245V327.69h-63V256h63v-54.64c0-62.15 37-96.48 93.67-96.48 27.14.0 55.52 4.84 55.52 4.84v61h-31.28c-30.8.0-40.41 19.12-40.41 38.73V256h68.78l-11 71.69h-57.78V501C413.31 482.38 504 379.78 504 256z"/></symbol><symbol viewBox="0 0 1536 1792" id="funkwhale"><path d="M330.695 200.717c-25.662-1.107-51.021-.888-75.451.354l-2.785.145-.917 2.623c-19.498 56.798-2.537 119.88 31.85 168.526l.05.065.032.048c36.788 48.495 87.602 82.592 139.008 108.3 51.975 26.826 107.075 31.784 155.538 60.05 31.676 18.68 51.615 38.6 71.138 69.512l.016.048.033.032c30.389 45.583 28.97 103.907 28.97 103.907v.193l4.17 65.907.224.58s6.368 16.843 19.893 33.67c13.525 16.825 34.67 34.087 63.895 34.087 30.782.0 52.01-17.255 65.151-34.136 13.142-16.881 18.686-33.799 18.686-33.799l.16-.5 4.17-65.81v-.193s-1.447-57.472 28.985-103.922l.033-.032.017-.032c19.585-31.01 38.67-52.472 70.945-69.416l.082-.049.082-.048c48.467-28.273 103.575-33.221 155.554-60.05 51.403-26.53 101.423-60.623 135.774-108.38 34.447-47.89 50.52-111.738 31.883-168.494l-.885-2.688-2.816-.145c-97.715-4.968-210.389 6.496-297.154 53.21-59.262 31.47-106.796 41.626-143.08 56.056-33.595 13.36-57.13 32.338-69.207 73.36-12.04-41.393-35.437-60.39-68.965-73.665-36.185-14.328-83.697-24.278-143.355-55.736l-.033-.016c-65.07-35.03-144.714-50.243-221.686-53.563zm-.37 8.256c76.132 3.324 154.703 18.403 218.177 52.581h.017l.016.017c60.636 31.98 109.104 42.228 144.191 56.122 35.088 13.893 56.648 30.324 67.13 77.092l.725 3.22h8.24l.725-3.203c10.477-46.34 32.251-62.804 67.452-76.804C872.2 304 920.66 293.536 980.884 261.555h.033c83.725-45.083 193.615-56.79 289.637-52.275 16.225 53.003 1.305 113.04-31.255 158.306-33.22 46.183-82.082 79.661-132.861 105.87-50.15 25.883-105.387 30.849-155.763 60.177-.008.006-.025.01-.033.017-33.628 17.663-54.09 40.69-74.051 72.296-32.153 49.127-30.307 108.606-30.307 108.606l-4.056 64.056c-.184.55-5.244 15.564-17.221 30.95-12.198 15.668-30.923 30.966-58.649 30.966-25.986.0-44.819-15.291-57.457-31.014-12.349-15.363-18.144-30.286-18.412-30.982l-4.072-64.346v.37s1.867-60.264-30.306-108.607c-20.032-31.715-41.307-52.99-73.907-72.216v-.016h-.016c-50.419-29.411-105.722-34.348-155.924-60.258l-.017-.017h-.032C375.478 448.07 325.8 414.603 290.088 367.553c-32.601-46.15-48.222-105.347-31.255-158.274 23.234-1.093 47.192-1.366 71.492-.306zm94.05 268.145c51.09 26.37 106.301 31.314 155.744 60.155 32.137 18.953 52.738 39.554 72.515 70.868 31.314 46.97 29.666 106.301 29.666 106.301l4.12 65.1s24.721 65.099 79.932 65.099c58.507.0 79.932-65.1 79.932-65.1l4.12-65.099s-1.648-58.507 29.666-106.301c19.777-31.314 39.554-53.563 72.515-70.868 49.443-28.841 104.653-33.785 155.744-60.155 51.09-26.369 100.533-60.155 134.319-107.125 33.785-46.97 49.442-109.597 31.313-164.808-97.237-4.944-209.306 6.592-295.006 52.738-119.486 63.452-192.002 41.202-213.427 135.967h-1.648c-21.425-95.589-93.117-72.515-213.427-135.967-85.7-46.146-197.77-57.682-295.007-52.738-18.953 55.21-2.472 117.014 31.314 164.808 36.258 47.794 86.524 81.58 137.615 107.125zM18.122 803.442C8.264 803.442.0 811.706.0 821.564c0 423.322 344.679 768.016 768 768.016s768-344.694 768-768.016c0-9.858-8.264-18.122-18.122-18.122h-99.706c-9.858.0-18.139 8.264-18.139 18.122.0 348.798-284.879 632.87-632.854 632.87-348.81.0-632.87-283.236-632.87-632.87.0-9.858-8.264-18.122-18.122-18.122zm0 8.24h98.065c4.974.0 9.882 4.908 9.882 9.882.0 354.098 287.838 641.11 641.11 641.11 352.46.0 641.095-287.824 641.095-641.11.0-4.974 4.923-9.882 9.898-9.882h99.706c4.974.0 9.882 4.908 9.882 9.882.0 418.85-340.911 759.776-759.76 759.776S8.24 1240.413 8.24 821.564c0-4.974 4.908-9.882 9.882-9.882zm1499.756-4.123h-99.71c-7.416.0-14.008 6.592-14.008 14.009.0 351.041-286.767 636.983-636.984 636.983-351.042.0-636.984-285.118-636.984-636.983.0-7.417-6.592-14.01-14.009-14.01h-98.06c-7.417.0-14.01 6.593-14.01 14.01.0 421.085 342.802 763.886 763.887 763.886s763.886-342.801 763.886-763.886c0-7.417-6.592-14.01-14.008-14.01zm-1249.244-4.117c-9.852.0-18.13 8.255-18.138 18.106-1.662 284.902 230.98 517.52 517.504 517.52 284.888.0 517.504-232.615 517.504-517.504.0-9.858-8.28-18.122-18.138-18.122h-99.706c-9.858.0-18.122 8.264-18.122 18.122.0 211.2-171.16 382.359-382.359 382.359-211.2.0-382.358-171.16-382.358-382.359.0-9.858-8.265-18.122-18.123-18.122zm0 8.24h98.064c4.975.0 9.882 4.908 9.882 9.882.0 215.654 174.945 390.6 390.6 390.6 215.653.0 390.598-174.946 390.598-390.6.0-4.974 4.907-9.882 9.882-9.882h99.706c4.975.0 9.898 4.908 9.898 9.882.0 280.404-228.86 509.264-509.264 509.264-282.065.0-510.899-228.84-509.264-509.231v-.033c0-4.975 4.923-9.882 9.898-9.882zM768 1334.945c282.646.0 513.378-230.731 513.378-513.377.0-7.417-6.593-14.01-14.009-14.01h-99.709c-7.416.0-14.009 6.593-14.009 14.01.0 213.426-173.048 386.475-386.475 386.475s-386.475-173.049-386.475-386.475c0-7.417-6.593-14.01-14.01-14.01h-98.06c-7.416.0-14.009 6.593-14.009 14.01-1.648 282.646 229.084 513.377 513.378 513.377zM517.488 802.621c-9.858.0-18.122 8.265-18.122 18.123.0 148.901 120.56 268.634 268.634 268.634 148.09.0 268.634-120.544 268.634-268.634.0-9.858-8.264-18.123-18.122-18.123h-99.706c-9.858.0-18.139 8.265-18.139 18.123.0 72.754-59.094 132.667-132.667 132.667-72.754.0-132.667-59.095-132.667-132.667.0-9.858-8.281-18.123-18.139-18.123zm0 8.24h99.706c4.975.0 9.898 4.908 9.898 9.883.0 78.05 63.687 140.907 140.908 140.907 78.051.0 140.908-63.686 140.908-140.907.0-4.975 4.923-9.882 9.898-9.882h99.706c4.974.0 9.882 4.907 9.882 9.882.0 143.62-116.773 260.393-260.394 260.393-143.636.0-260.394-115.936-260.394-260.393.0-4.975 4.907-9.882 9.882-9.882zM768 1085.262c145.855.0 264.517-118.662 264.517-264.517.0-7.417-6.592-14.01-14.008-14.01h-99.71c-7.416.0-14.008 6.593-14.008 14.01.0 74.987-60.98 136.79-136.791 136.79-74.988.0-136.79-60.979-136.79-136.79.0-7.417-6.593-14.01-14.01-14.01h-99.709c-7.416.0-14.008 6.593-14.008 14.01.0 146.679 118.662 264.517 264.517 264.517z"/></symbol><symbol viewBox="0 0 496 512" id="github"><path d="M165.9 397.4c0 2-2.3 3.6-5.2 3.6-3.3.3-5.6-1.3-5.6-3.6.0-2 2.3-3.6 5.2-3.6 3-.3 5.6 1.3 5.6 3.6zm-31.1-4.5c-.7 2 1.3 4.3 4.3 4.9 2.6 1 5.6.0 6.2-2s-1.3-4.3-4.3-5.2c-2.6-.7-5.5.3-6.2 2.3zm44.2-1.7c-2.9.7-4.9 2.6-4.6 4.9.3 2 2.9 3.3 5.9 2.6 2.9-.7 4.9-2.6 4.6-4.6-.3-1.9-3-3.2-5.9-2.9zM244.8 8C106.1 8 0 113.3.0 252c0 110.9 69.8 205.8 169.5 239.2 12.8 2.3 17.3-5.6 17.3-12.1.0-6.2-.3-40.4-.3-61.4.0.0-70 15-84.7-29.8.0.0-11.4-29.1-27.8-36.6.0.0-22.9-15.7 1.6-15.4.0.0 24.9 2 38.6 25.8 21.9 38.6 58.6 27.5 72.9 20.9 2.3-16 8.8-27.1 16-33.7-55.9-6.2-112.3-14.3-112.3-110.5.0-27.5 7.6-41.3 23.6-58.9-2.6-6.5-11.1-33.3 2.6-67.9 20.9-6.5 69 27 69 27 20-5.6 41.5-8.5 62.8-8.5s42.8 2.9 62.8 8.5c0 0 48.1-33.6 69-27 13.7 34.7 5.2 61.4 2.6 67.9 16 17.7 25.8 31.5 25.8 58.9.0 96.5-58.9 104.2-114.8 110.5 9.2 7.9 17 22.9 17 46.4.0 33.7-.3 75.4-.3 83.6.0 6.5 4.6 14.4 17.3 12.1C428.2 457.8 496 362.9 496 252 496 113.3 383.5 8 244.8 8zM97.2 352.9c-1.3 1-1 3.3.7 5.2 1.6 1.6 3.9 2.3 5.2 1 1.3-1 1-3.3-.7-5.2-1.6-1.6-3.9-2.3-5.2-1zm-10.8-8.1c-.7 1.3.3 2.9 2.3 3.9 1.6 1 3.6.7 4.3-.7.7-1.3-.3-2.9-2.3-3.9-2-.6-3.6-.3-4.3.7zm32.4 35.6c-1.6 1.3-1 4.3 1.3 6.2 2.3 2.3 5.2 2.6 6.5 1 1.3-1.3.7-4.3-1.3-6.2-2.2-2.3-5.2-2.6-6.5-1zm-11.4-14.7c-1.6 1-1.6 3.6.0 5.9 1.6 2.3 4.3 3.3 5.6 2.3 1.6-1.3 1.6-3.9.0-6.2-1.4-2.3-4-3.3-5.6-2z"/></symbol><symbol viewBox="0 0 448 512" id="mastodon"><path d="M433 179.11c0-97.2-63.71-125.7-63.71-125.7-62.52-28.7-228.56-28.4-290.48.0.0.0-63.72 28.5-63.72 125.7.0 115.7-6.6 259.4 105.63 289.1 40.51 10.7 75.32 13 103.33 11.4 50.81-2.8 79.32-18.1 79.32-18.1l-1.7-36.9s-36.31 11.4-77.12 10.1c-40.41-1.4-83-4.4-89.63-54a102.54 102.54.0 01-.9-13.9c85.63 20.9 158.65 9.1 178.75 6.7 56.12-6.7 105-41.3 111.23-72.9 9.8-49.8 9-121.5 9-121.5zm-75.12 125.2h-46.63v-114.2c0-49.7-64-51.6-64 6.9v62.5h-46.33V197c0-58.5-64-56.6-64-6.9v114.2H90.19c0-122.1-5.2-147.9 18.41-175 25.9-28.9 79.82-30.8 103.83 6.1l11.6 19.5 11.6-19.5c24.11-37.1 78.12-34.8 103.83-6.1 23.71 27.3 18.4 53 18.4 175z"/></symbol><symbol viewBox="0 0 1536 1792" id="matrix-org"><path d="M40.467 163.152v1465.696H145.92V1664H0V128h145.92v35.152zm450.757 464.64v74.14h2.069c19.79-28.356 43.717-50.215 71.483-65.575 27.765-15.656 59.963-23.336 96-23.336 34.56.0 66.165 6.795 94.818 20.086 28.652 13.293 50.216 37.22 65.28 70.893 16.246-23.926 38.4-45.194 66.166-63.507 27.766-18.314 60.848-27.472 98.954-27.472 28.948.0 55.828 3.545 80.64 10.635 24.812 7.088 45.785 18.314 63.508 33.968 17.722 15.656 31.31 35.742 41.354 60.85 9.747 25.107 14.768 55.236 14.768 90.683v366.573h-150.35V865.28c0-18.314-.59-35.741-2.068-51.987-1.476-16.247-5.316-30.426-11.52-42.24-6.499-12.112-15.656-21.563-28.062-28.653-12.405-7.088-29.242-10.634-50.214-10.634-21.268.0-38.4 4.135-51.397 12.112-12.997 8.27-23.336 18.608-30.72 31.901-7.386 12.997-12.407 27.765-14.77 44.602-2.363 16.542-3.84 33.379-3.84 50.216v305.133H692.971v-307.2c0-16.247-.294-32.197-1.18-48.149-.591-15.95-3.84-30.424-9.157-44.011-5.317-13.293-14.178-24.223-26.585-32.197-12.406-7.976-30.425-12.112-54.646-12.112-7.088.0-16.542 1.478-28.062 4.726-11.52 3.25-23.04 9.157-33.968 18.02-10.93 8.86-20.383 21.563-28.063 38.103-7.68 16.543-11.52 38.4-11.52 65.28v317.834H349.44V627.792zm1004.309 1001.056V163.152H1390.08V128H1536v1536h-145.92v-35.152z"/></symbol><symbol viewBox="0 0 1920 1920" id="peertube"><path d="M93.02.0v900.082L768 450.042 93.02.0zM768 450.042v899.916l674.98-449.876L768 450.042zM93.02 900.082V18e2L768 1350.124 93.02 900.082z"/></symbol><symbol viewBox="0 0 1536 1792" id="pixelfed"><path d="M768 1664C343.845 1664 0 1320.155.0 896s343.845-768 768-768 768 343.845 768 768-343.845 768-768 768zm-60.97-600.33h140.887c132.72.0 240.312-104.74 240.312-233.944S980.638 595.782 847.917 595.782H644.576c-76.57.0-138.642 60.427-138.642 134.968v525.312z" fill-rule="evenodd"/></symbol><symbol viewBox="0 0 1024 1024" id="element-logo"><path fill-rule="evenodd" clip-rule="evenodd" d="M414 204c0-23.196 18.804-42 42-42 154.64.0 280 125.36 280 280 0 23.196-18.804 42-42 42s-42-18.804-42-42c0-108.248-87.752-196-196-196-23.196.0-42-18.804-42-42z"/><path fill-rule="evenodd" clip-rule="evenodd" d="M610 820c0 23.196-18.804 42-42 42-154.64.0-280-125.36-280-280 0-23.196 18.804-42 42-42s42 18.804 42 42c0 108.248 87.752 196 196 196 23.196.0 42 18.804 42 42z"/><path fill-rule="evenodd" clip-rule="evenodd" d="M204 610c-23.196.0-42-18.804-42-42 0-154.64 125.36-280 280-280 23.196.0 42 18.804 42 42s-18.804 42-42 42c-108.248.0-196 87.752-196 196 0 23.196-18.804 42-42 42z"/><path fill-rule="evenodd" clip-rule="evenodd" d="M820 414c23.196.0 42 18.804 42 42 0 154.64-125.36 280-280 280-23.196.0-42-18.804-42-42s18.804-42 42-42c108.248.0 196-87.752 196-196 0-23.196 18.804-42 42-42z"/></symbol><symbol viewBox="0 0 512 512" id="twitter"><path d="M459.37 151.716c.325 4.548.325 9.097.325 13.645.0 138.72-105.583 298.558-298.558 298.558-59.452.0-114.68-17.219-161.137-47.106 8.447.974 16.568 1.299 25.34 1.299 49.055.0 94.213-16.568 130.274-44.832-46.132-.975-84.792-31.188-98.112-72.772 6.498.974 12.995 1.624 19.818 1.624 9.421.0 18.843-1.3 27.614-3.573-48.081-9.747-84.143-51.98-84.143-102.985v-1.299c13.969 7.797 30.214 12.67 47.431 13.319-28.264-18.843-46.781-51.005-46.781-87.391.0-19.492 5.197-37.36 14.294-52.954 51.655 63.675 129.3 105.258 216.365 109.807-1.624-7.797-2.599-15.918-2.599-24.04.0-57.828 46.782-104.934 104.934-104.934 30.213.0 57.502 12.67 76.67 33.137 23.715-4.548 46.456-13.32 66.599-25.34-7.798 24.366-24.366 44.833-46.132 57.827 21.117-2.273 41.584-8.122 60.426-16.243-14.292 20.791-32.161 39.308-52.628 54.253z"/></symbol></svg>